<svg width="107" height="120" fill="none" xmlns="http://www.w3.org/2000/svg"><path fill-rule="evenodd" clip-rule="evenodd" d="M88.9.344l2.36.175.349 2.883-2.38.311-.504-1.272L88.9.344zm10.437 11.832l.424-.81 1.542-.847.54 1.889-1.272.231-1.234-.463zm-3.316-5.359l-.308-1.08.848-.27.694.772-.192.694-1.042-.116zM19.736 99.422l-4.049-.195-1.943-2.092-1.27.373-1.42 1.496.597 2.092 1.27 2.094-1.045.971-1.719-1.346-1.421-.074-1.345.746-.223 2.018-2.841.226-.853 1.122-.401-1.203 1.104-.865.033-.026.013-.04.308-.925.018-.051-.023-.05-.617-1.335-.025-.056-.06-.019-2.945-.901.198-1.233v-.003l.163-1.213 1.782-.415.092-.02.014-.096.214-1.5 1.449-2.471 2.388-1.341 1.199.62.03.015h.88l.029-.102.459-1.627 1.191-.37.026-.008.02-.016.829-.655.12-.095-.106-.11-1.134-1.177-.07-.071-.089.041-.654.306-.006.002-.863.452-3.89-1.282-.87-.704-1.01-2.273.446-1.297 1.793-1.084.94.079.764 1.003.043 1.83v.064l.052.042.873.698.066.053.077-.035 1.014-.465.84.08.573.409 1.475 1.43.074.074.09-.05.784-.436.039-.021.019-.039.523-1.046.039-.078-.051-.067-.895-1.193-.12-.837.894-1.66.012-.022.003-.024.206-1.434-.132-.254-.826-.124-2.54-1.12-1.043-.832-.4-1.24 2.253-2.664 2.628-.277.067-.006.036-.058 1.597-2.528 1.148 1.275.08.088.099-.064 1.201-.777.048-.03.012-.057.4-1.802 2.861-.137.063-.003.039-.048.848-1.06.026-.032.004-.04.207-2.006 1.313-1.521.062-.07-.043-.085-.972-1.873.065-1.36 3.03-1.378.022-.01.018-.018 3.602-3.53.008-.01.006-.007 2.401-3.178.009-.012.008-.017.523-1.197.73-1.25.145-.25 3.936-6.74 3.589-3.203.03-.026.011-.04.544-1.957 3.397-3.026.689 1.083.043.068.08-.004 2.108-.111.049-.003.036-.032 2.331-2.065 1.62-.026.28-.005 1.683-.026h.05l.036-.032 2.618-2.161 5.143-.23.06-.002.04-.046 1.36-1.585 2.038-.68.047-.016.026-.04 1.27-1.962.034-.053-.02-.062-.789-2.596 2.048-3.64.038-.068-.038-.068-.982-1.745 1.671-1.393 2.92 4.684.747 3.214.897 1.42 2.765-2.541-.822-1.197-.374-1.345.748-2.092-2.168-2.242.075-1.121 2.466-.748 1.793-3.214-1.644-2.167 1.644-1.57 3.14-.747L82.8 8.272l2.69-3.437 2.243-1.72 1.495.598 2.317 3.065-.598 3.96-2.99 2.84.523 2.467-.522 1.868-4.56 10.837.449 2.915-2.69 5.382-3.962 2.54-2.466.971-4.709-2.167v2.093l7.026 4.335 2.092-2.242 3.064-1.122 3.364-3.437.223-4.41 2.019-1.943 3.662.523 1.046 3.14-2.391 4.184.897 3.364 3.213-.747-1.719-.972-.598-1.196 2.168-2.616v-3.512l-3.064-3.663h-3.737l-.225-3.512 3.662-5.755-.074-5.904 1.495-2.242 1.569-.449 1.495-1.345.971-2.69.822-.374-.299 3.96-2.017 2.467.15 2.69 4.783 4.26-.15-2.466-2.617-2.84.674-2.316 2.465 2.242.749-2.69 1.505-.09.028.295.002.026.01.02 1.7 3.611-1.819.303-.096.017-.019.096-.443 2.444-.008.044.019.04 1.756 3.731-.417 1.664-4.157 1.86-.063.029-.017.064-.555 2.223-.016.064.04.053 2.777 3.666.03.039.047.011 3.022.756.641 3.662-1.223 3.106-2.89.778-.154.041.063.148.889 2.114-.894 2.68-.023.07.045.059 2.241 2.913-.563 5.292-.006.053.032.043 1.785 2.456-.673 3.809-.014.084.069.051 2.686 2.015.435 2.618-2.355 3.253-.022.03-.004.041-.223 2.915-3.559 4.522-.127.267v3.761l.07.04 2.949 1.697-.469 1.208-2.599 1.114-2.37.296-2.092-1.495-.074-.052-.077.045-4.043 2.32-3.36-2.465-.036-.026h-.046l-4.842-.077-3.172-2.114-.015-.012-.023-.004-2.366-.688-.067-.02-.056.044-2.213 1.678-.036.028-.012.041-1.568 5.003-1.794-.215-.049-.007-.042.028-1.528.992-.05.034-.01.057-.293 1.54-2.511 1.437-.248.16.127.25.121 1.034-1.361 1.666-.078.094.084.09 1.284 1.358v7.562l-1.796 1.048-.092.053.027.101.496 1.912-2.14-.142-.033-.003-.03.013-1.866.777-.044.019-.025.042-1.088 1.944-.019.034.003.038.231 5.413-1.266 3.008-3.22.585-1.121.971-1.345.299-1.495-.822-1.72.523v-1.196l1.72-1.421-1.196-1.344-1.195-.299-1.57-.075-.15-1.719-3.213-.747-.3-1.27 1.495-1.719-.448-1.346.673-.748-.075-1.942-1.081-.314-.297-.065-1.388-.22-1.718-2.915-2.1.026-.28.08-2.553 1.166-7.026-1.346-2.092-1.121-1.42 1.121-2.392-1.495-4.21-.976-.262-.1z" fill="#00437B"/></svg>