<svg width="69" height="57" fill="none" xmlns="http://www.w3.org/2000/svg"><path fill-rule="evenodd" clip-rule="evenodd" d="M51.16 31.744l4.946.042.608-.405.036-.025.044.002 1.627.043.096.002.032.09.451 1.271 1.314.575.025.011.019.02 1.121 1.14 1.827-1.86.042-.043h.06l4.436.085.081-2.796.002-.052.034-.039.86-.937-.972-.972-2.34.585-.054.014-.049-.029-3.538-2.07-.033-.02-.018-.034-2.139-3.935-3.216-1.947-4.922-.255-.258-.157-1.807-1.725-.06-.057.023-.08.696-2.536-1.342-1.647-1.167.061-.045.002-.037-.024-3.032-1.958-.164-.228-.303-2.673-2.261.014-.015.146-.203-.18-2.493-2.221-1.493.09-.054.004L37.483 7l-1.786-1.46-.035-.028-.012-.047-.316-1.313-1.33-.947-.487.375-.225 1.219-.023.125-.125-.011-3.289-.282-.045-.004-.035-.031-1.103-.966-3.21-.84-.025-.006-.021-.015-1.691-1.224-.008-.006-.009-.009-.893-.896-.867.866-.508 2.117-.006.024-.012.02-.95 1.467-.032.05-.058.01-2.229.431-.303-.004-.576-.305-1.161.3-.03.007-.026-.003-.247-.038-.336.6-2.467 1.42-1.27 2.018-1.345 2.765-.15 2.241.374 1.346-.972 1.196-.06.924-.275.142-2.056-.17-1.495-1.42.15-1.345-1.42-.299-.823 2.018-2.99 2.541.226 1.644 1.569-.074 1.195.971.449 2.093 1.345-.15 1.57.3v1.046L5.077 27.95l-.399.264-1.237.532-.597 1.196-.898.225-.075 1.494 1.272.748-.31 2.793-.106.275-1.08 1.34-.522.823.224 1.12 1.12.524-.149 1.72 2.84 1.793.075 3.288 2.23 4.237.135.257.624 1.187-.107 2.753 1.902 1.016.01.005 1.375.885 1.273-.882.04-.027.047.003 1.93.101 2.025-1.236.22-1.542.019-.135.136.017 2.264.303 1.195-.375.113-.033.053.104.892 1.787 2.012.716.446-.397.137-2.245.179-.213 1.837-.319 3.674-1.895.464-.642.039-3.053v-.02l.354-2.078.007-.037.023-.029 1.608-1.906.264-.122.959.331.864-.035 2.863-2.554.006-.004.008-.006 1.518-1.074-.354-.959-.584-1.594.174-.25 1.996-1.194.031-.019.037-.001 2.531-.084 2.784-1.679.26-.1.898-.178.652-.94.038-.055.067-.004 1.67-.129.06-.004.045.042.653.614 1.046-.598.284-.053z" fill="#00437B"/></svg>