<svg width="66" height="54" fill="none" xmlns="http://www.w3.org/2000/svg"><path fill-rule="evenodd" clip-rule="evenodd" d="M48.876 13.832l2.043-1.248.056-.034.008-.065.21-1.469 2.159.287.03.004.03-.008 1.11-.347.864 1.728.026.05.051.02 2.057.734.146 1.822.004.04.025.033.993 1.3.032.04.05.012 1.414.297 2.452 2.379v1.725l-1.111 1.26-.033.036-.002.049-.076 1.376-.009.137.137.01 1.071.075.033.003.032-.013.885-.38.068 1.863.001.04.024.034.688.994.032.047.055.01 1.42.285.076 3.178-.834.254-2.317.598-2.167 1.197-.374 1.942-2.526.834-.262.102-1.098.484-.835.434 1.731 2.406-1.943 1.795-.224 1.27 1.569.373 1.047 1.42-1.196 6.726-1.57.3.524 2.466-6.278.15-2.346-.854-.358-.025-2.229 1.028-2.331-.05-.526-1.386-.012-.029-.02-.02-2.344-2.345.1-2.222.001-.02-.004-.017-.52-2.181-.003-.018-.01-.017-1.535-2.761.409-2.443.008-.05-.025-.044-1.448-2.482-.619-1.648-.024-.066-.069-.02-1.405-.401-.698-.998-.052-.074-.087.016-1.061.193-1.017-1.246-.178-.219-1.003-1.232-.277-.022-.967.791-.75-1.31-.062-.111-.115.053-1.142.519-.073.032-.008.08-.098.884-1.004 1.005-.105.104.11.098.853.758-.779 1.46-.04.074.046.069.529.79-1.398.56-.049.02-.024.048-1.306 2.613-1.816-.191-1.105-1.509-.06-.081-.098.033-3.553 1.232-.786-1.317-1.195.524-.598-.823.523-4.56.224-2.763-.672-2.99.074-1.868-1.195-.897-.375-1.121.822-.972-.15-3.074 1.645-1.38 2.093 3.856 1.046-1.346 2.841-.149 1.494.748.374-3.588 2.735 2.488.4.175 1.2-.944 2.093 1.27 1.195-.821-4.036-2.392 1.869-1.944 4.036.525 1.719 2.54 2.391-.897 1.42-2.54 1.196-.15.897-1.345 2.316.074.03-.75 1.776.948 1.452.934.078.05.076-.053 1.31-.907 1.807.095.274-.06zm-36.534 4.09l-2.907-1.549-.77-2.297-2.3-1.683-5.782-1.307-.283-.915L0 8.522l1.057-.937 1.094-1.11 1.32-1.89-.187-1.462-.56-1.37.669-1.071 5.86 3.844 1.34-.938 1.54 1.272-1.91 4.344-.328 2.225.214 1.37 3.725 3.478-1.492 1.645z" fill="#00437B"/></svg>