<svg width="181" height="87" fill="none" xmlns="http://www.w3.org/2000/svg"><path fill-rule="evenodd" clip-rule="evenodd" d="M180.156 14.202l-3.059 1.66-12.756.263-1.66 1.921-2.011-.436-.96.873-1.486-1.049-.262 1.574-.787 1.048-1.048-1.136-.262 1.311-1.399-.525-.087 1.311-1.135-.087-.438 1.31-1.747.176-1.923-1.224.612 1.835-1.048 1.485-2.622.874-2.184 2.36-.524 2.533-.7 6.64-1.048-.523-1.573-.35-.087-1.223-1.398-.175-1.223-2.709 1.572-1.572-.087-2.534-1.66-1.66.087-1.923 1.748-1.31 1.573.524 2.534-1.31.087-1.486 1.834.088.35-1.923 2.534 1.049 1.573-1.486-1.136-1.136.874-1.048 1.399.611 3.931-1.223.174-1.223 1.573-.087.7-3.059 1.398 1.485 1.048-.873h2.097l2.534-1.66 2.01.873 2.01-1.136 2.271 1.923 5.243.436.524-1.136 3.059-.785 1.31 1.572-.349 2.272zM137.952 29.58l-.961.7-.175-2.535 1.136.263v1.572zm4.894 13.369l.349-2.01 2.097-.524.611 2.272-.087 2.272-1.66.175-1.31-2.185zm-21.4-6.595l-1.286-1.693.563-1.987 2.305-.805 1.608 1.745.188 1.692-.349 1.128-3.029-.08zm29.013 21.749l-.942 1.675-.029.052.017.057.789 2.592-1.207 1.865-2.03.677-.036.012-.026.03-1.345 1.568-5.13.228-.047.002-.036.03-2.615 2.161-3.585.056-.051.001-.038.035-2.334 2.066-1.979.104-.733-1.15-.087-.139-.122.108-3.55 3.162-.03.027-.011.04-.544 1.957-3.574 3.19-.017.014-.011.019-4.778 8.183-2.642-.37-4.296-3.524-.073-.06-.082.046-1.571.866-3.978-.437-2.838-1.473-2.589-2.92-.037-.042-.054-.004-3.494-.333-.103-.01-.04.097-1.032 2.555-1.838.84-5.27-2.032-.09-.035-.064.072-1.742 1.955-.676-.542v-3.122l-.011-.027-.41-.972 4.167-4.66.02-.374-.161-1.864-.005-.043-.027-.034-1.294-1.57-.05-.062-.079.012-1.596.252-.28.087-2.302 1.507-2.173-.092-.098-.004-.037.092-.37.925-.035.087.069.065 1.469 1.383-1.652 1.707-1.022-1.022-.055-.055-.077.019-2.36.59-3.455-2.022-2.139-3.935-.018-.034-.033-.018-3.277-1.985-.03-.017-.035-.003-4.953-.256-1.831-1.749.694-2.524.019-.069-.045-.055-1.433-1.758-.044-.055-.07.004-1.192.062-3.031-1.957-.32-2.8-.013-.123h-.125l-2.355.015-.264-.145-2.335-2.078-.042-.038-.059.002-1.496.091-1.706-1.396-.318-1.318-.013-.051-.042-.03-1.456-1.036-.084-.06-.081.064-.61.47-.043.033-.01.052-.212 1.147-3.117-.268-1.093-.958-.025-.022-.032-.008-3.215-.84-1.663-1.204-.885-.887-.223-.172-1.064 1.064-.027.027-.01.04-.511 2.132-.904 1.398-2.292.442-.623-.33-.047-.025-.052.014-1.186.306-.117-.018.565-1.009-.374-1.868-1.792-.449-.3-1.27 1.27-1.57-1.12-1.42-.15-2.616 2.765-1.794.075-2.017 1.869-.224 1.569-2.616 2.616.15 1.345-1.87 2.317-1.793 1.447-.164.277-.032 1.565-.178 2.316-1.495 1.869 1.795 1.195.074.673 1.72.896-.748-.297-1.121.148-2.467 3.066-1.12 2.469-.092.278-.01 3.306-.123 7.323.972 1.645-.673.523-3.961.747-2.616 2.766.448.822-.822-.672-1.27 1.196-.897.672-1.27.598-1.495 1.494.075 2.094-1.42 1.643.074 3.186-4.008.178-.224 1.27-1.597 3.811-.075 1.943-3.14-.074-2.24 2.84-1.645 1.121-.822 5.68.523 3.961 2.69 1.047 2.018-1.121.747-1.122-1.569-.821.523.298 2.317 1.869 2.99.747 2.466-.15 6.726 1.195 4.634-.746 3.886L99.092 32l-3.587.672-5.83-3.513-.373-2.466-1.57-2.392-.298-3.96-1.121-2.392.374-2.691-.898-1.27-.623 3.83-.067.433-.506 3.36-1.344 2.317-2.318.748-2.764 3.437-.898 1.645.972 1.345-.224 1.046.181 1.226.043.287.374 2.522 2.167 1.196 1.345-1.793-1.42-1.72.897-3.138 3.289-.374-.3 3.662 2.018 4.71 1.42.821 1.944-4.858 3.512-.523 2.84.971 2.84-.448 1.869 3.513-1.496.299 1.047 1.943 2.25-2.032.242-.218 2.142-1.936.373-2.242 4.485-2.914.971-3.513 3.289 3.587.075 3.513-1.196 1.943-2.467-1.719-2.69.897.673 1.943-.673 1.943 2.242 2.168 4.335-2.542 1.196 1.122 1.046-1.047 8.221 2.018.748 1.346 1.494-1.794 3.214.747-1.27 2.467-2.392.224 1.419 1.943 4.037-.373 2.616 1.943 5.306.075v1.643l-1.644 1.495 1.42 1.121.746-1.12 1.122.223 2.018-1.195.075-2.467.373-1.644h2.84l3.737 4.036 1.424 2.622-1.797 1.496-.089.075.057.1 1 1.778-.952 1.69-.144.257zM82.536 27.395l.223.911-.78.521-.576-.633.075-.614.464-.632.594.447zM65.48 44.089l-.995.95-.042.041-.059-.002-2.067-.094-.055-.003-.04-.04-.97-1.017 1.024-.255 1.028-.824.15-.263.278-.768-.186-2.324-.003-.039.019-.036.846-1.647.008-.017.014-.014 3.053-3.295.055-.06.079.018 1.784.424.06.014.03.055.564 1.036.023.041-.008.047-.282 1.788-.007.047-.033.032-1.314 1.269-2.227 2.512-.6 2.145-.127.28zM52.612 29.247l1.792-.355.022-.004.023.003 2.35.329.059.009.034.048.94 1.318.026.038v.047l-.047 1.648-.002.049-.032.037-.81.946.091 1.829.002.014-.002.012-.235 1.6-.008.056-.045.034-1.19.918-.341.896-.239.147-2.353.045-.075.002-.043-.063-.944-1.397h-2.294l-.042-.052-.61-.754-.072-.088.071-.088 3.82-4.619-.12-2.525.274-.08zM5.401 31.418l-2.708-5.522L.505 23.12l-.161-2.636 2.05.137 1.505-.957 1.229 3.553 1.503.957.684-2.733 1.503 2.323.132 3.4-.405 2.614-3.144 1.64z" fill="#00437B"/></svg>