<svg width="84" height="80" fill="none" xmlns="http://www.w3.org/2000/svg"><path fill-rule="evenodd" clip-rule="evenodd" d="M60.8 13.194l.987-2.437 3.336.317 2.57 2.899.017.02.023.011 2.795 1.452-.004.028 4.19.477.044.005.039-.022 1.525-.842 4.254 3.49.03.024.038.006 2.591.363-.446 1.023-2.387 3.159-3.576 3.507-3.086 1.403-.077.035-.005.085-.07 1.483-.002.037.018.034.945 1.823-1.28 1.482-.029.033-.005.043-.207 2.009-.783.977-2.904.139-.105.004-.024.105-.412 1.85-1.053.683-1.192-1.325-.122-.137-.1.156-1.658 2.628-2.616.274-.057.005-.035.044-2.31 2.732-.014.291.396 1.227.013.04.032.026 1.09.873.017.012.014.006 2.574 1.135.017.006.018.004.735.11-.195 1.366-.904 1.678-.02.04.005.046.13.915.006.035.022.03.864 1.15-.466.933-.657.365-1.409-1.367-.009-.008-.006-.006-.612-.436-.03-.023-.037-.002-.916-.087-.037-.004-.033.016-.97.444-.755-.604-.041-1.81-.001-.044-.027-.037-.83-1.09-.038-.05-.06-.005-1.047-.087-.045-.005-.039.024-1.875 1.134-.044.026-.016.048-.48 1.395-.016.052.021.05 1.047 2.354.014.032.026.02.915.742.021.016.023.009 3.968 1.307.056.02.053-.028.913-.48.56-.261.959.997-.687.542-1.24.384-.073.022-.02.075-.452 1.598h-.602l-1.235-.639-.066-.034-.065.036-2.486 1.396-.032.019-.02.032-1.482 2.53-.014.024-.004.026-.206 1.432-1.781.415-.093.021-.013.096-.175 1.31-.203 1.257.12.256 2.964.907.567 1.23-.277.831-1.149.899-.077.06.03.093.463 1.386.016.045.037.028.19.128 2.115 4.628-1.197 1.719-1.196.897-2.764-.897-.673-1.346-.897-.3-1.122.675-1.12-.375-1.345-1.494-.3-1.196.3-2.092-1.346-.822-1.046-1.047-.972 1.047-1.196-.225-.523-.897.075-1.121-2.391-1.046-1.27-.075-1.347.897-1.12-.822-.374-1.944-.523-1.12-.747-.224-1.72 1.045-.672-1.344.672-1.645-.597-2.616-.599-2.093-1.494-.522-.523-.598.449-.971.074-1.048-1.57-.747-.747.674-1.046.223-.897-2.168.08-1.696-.195-.202-1.156.255-1.718.448-2.318.15-.672-.524-.896.075-1.27 1.047-2.318-.448-.972 1.045-.822 1.645-1.645.748-.821-1.496.373-1.196.15-1.494-1.427-1.359-.08-3.388-.003-.11-.109-.024-1.474-.294-.633-.915-.075-2.023-.008-.204-.186.08-1.04.446-.9-.064.066-1.192 1.115-1.264.036-.04V39.29l-.043-.04-2.524-2.448-.029-.028-.039-.009-1.402-.294-.939-1.227-.144-1.802.5-.448.042-.036.004-.059.139-2.265 1.808-.314.02-.003.019-.01 3.12-1.609.25-.129.354-.181.029-.017.02-.027.509-.704.026-.037v-.044l.039-3.084.345-2.03 1.599-1.896.929.322.024.009.026-.002.838-.035.26-.101 2.825-2.52 1.503-1.063.136-.258-.382-1.03-.549-1.498 1.986-1.187 2.534-.085.037-.002.03-.018 2.89-1.743 1.047-.209.056-.011.032-.047.648-.93 1.542-.118.683.642.076.07.09-.05 1.166-.666 5.1.041.044.001.034-.023.606-.404 1.488.04.438 1.236.02.057.056.025 1.345.588 1.247 1.268.248-.143 1.79-1.822 4.513.085.137.003.003-.138.085-2.88.911-.995.003-.003 1.846-1.907.099-.102-.103-.097-1.502-1.414.298-.744 2.12.088.044.002.037-.025 2.38-1.555 1.647-.26 1.216 1.476.175 2.024-4.192 4.688-.059.065.034.081.433 1.027v3.201l.052.043.832.665.103.083.087-.099 1.767-1.98 5.234 2.018.055.02.053-.024 1.84-.84.201-.194z" fill="#00437B"/></svg>