<svg width="26" height="44" fill="none" xmlns="http://www.w3.org/2000/svg"><path fill-rule="evenodd" clip-rule="evenodd" d="M22.856 19.455l2.28 2.28.511 1.345-1.738 1.309.374 1.57-.3 3.587-3.587 3.438-.97 5.606v3.96l-1.421.898-1.197-.375-1.12-.596-.524.895-.896.375-1.87-2.317.376-1.496.149-3.139-2.093-2.99-.15-2.24.796-.799.1-.271-.223-1.099-.53-1.431-.175-.225-.79-.585-.034-.623-.016-.287-.024-.436-2.99-1.42-.113-2.563-.083-.285-.477-.74-.074-2.391-1.573-1.737-.187-.206-1.828-2.018v-1.868L.625 9.506l3.402-1.179 1.08 1.475.038.048.061.008 1.972.208.096.01.043-.087.554-1.108.153-.306.619-1.238 1.508-.603.16-.063-.096-.143-.577-.865.792-1.484.051-.097-.082-.072-.824-.733.934-.933.035-.034.005-.05.095-.855.954-.434.768 1.344.082.141.128-.103 1.034-.847 2.195 2.695.052.065.08-.015 1.055-.193.675.965.03.042.046.013 1.386.397.598 1.593.005.014.005.007 1.428 2.45-.407 2.442-.007.047.023.043 1.547 2.786.51 2.143-.1 2.2.125.255z" fill="#00437B"/></svg>