<svg width="183" height="238" fill="none" xmlns="http://www.w3.org/2000/svg"><path fill-rule="evenodd" clip-rule="evenodd" d="M159.373 85.572l.873-2.617 1.105.175 1.803.814-.465 5.349-3.316-3.721zm-20.524 88.94l-1.42-3.736-4.409-2.392-2.393-5.457-2.391-1.792.373-1.72 1.197.299.747-.971-1.345-2.018-2.466-1.719.299-1.42 1.345-.598 1.942 2.467 4.186 2.913 3.065 5.756 6.651 5.979 9.417 6.353-4.186.223-2.242 1.271 1.047 3.065 1.869 4.782 2.913 2.094 2.541 1.121h2.393l1.644 3.438-2.018-1.047-.822.373-2.168.15.375 2.317-.225 3.065-2.765-3.514-.374-2.69-2.69-1.27-.599-1.72-.672-1.942-2.168-1.645-1.868-3.064-2.615-4.185-2.168-2.766zm2.468 24.803l1.044 7.783-1.569 6.651-1.121 12.706-2.317 4.633-3.887 3.139-5.381-.073-3.139 2.989-.149-2.168-5.68-5.829 2.018-4.409 6.129-.525-1.569-2.69.286-8.724-.042-.276-1.216-3.48.746-2.393-1.99-3.253-.264-.092-2.08.954-3.813 4.26-.672 2.094-5.081 2.465-2.391-2.093-2.235-3.532-.264-.106-1.537.2-2.84-.897-1.495.748-2.093-.971-3.364 1.344-8.52-8.819-6.876-6.8-4.708.746-3.887-1.344-5.093 2.617-3.175-4.762 1.12-1.588.087-.125-.132-.075-1.994-1.141-.288-3.843-.012-.164-.157.039-1.957.464-1.221-2.161-.07-.121-.12.068-2.552 1.418-1.41-1.41.912-1.275.081-.118-.118-.08-3.058-2.037-.202-.202-3.941-7.305-3.033-6.877-.016-.036-.032-.022-1.674-1.16-.066-.045-.071.032-2.694 1.226-.98-2.945-.021-.061-.06-.024-4.507-1.802-.035-.015-.04.006-2.318.386-.072.013-.031.066-3.469 7.452-2.208 2.574-1.696-1.696-.13-.129-.09.159-1.121 1.995-3.14.125-.046.001-.034.026-2.09 1.599-1.933-2.054.381-5.581 1.922-4.487.06-.143-.147-.045-2.515-.755-1.115-2.474.892-3.687.024-.103-.092-.052-1.986-1.117.126-3.52v-.038l-.017-.032-1.545-2.962-.072-.14-.13.09-1.247.874-1.495-.116v-1.599l1.35-.858.12-.078-.078-.117-1.191-1.806.006-.006-.072-.094-.91-1.136-.08-.1-.107.071-1.622 1.08-1.514-1.188-.038-.031H1.828l.206-1.85 2.135-2.585.015-.018.007-.024.684-1.818.037-.102-.088-.062-1.42-.983v-1.914l-.036-.039-1.204-1.314.555-2.661.018-.085-.07-.053-1.359-1.046 2.06-2.278.04-.045-.004-.058-.796-10.013-.003-.034-.02-.03-2.343-3.582.993-.512.013-.007.01-.01 2.955-2.406 1.83.216.125.015.027-.125.66-3.194.874-1.312.018-.027.005-.033.215-1.72 3.733-2.964.11-.089-.09-.109-1.635-1.96v-2.993l-.025-.037-3.204-4.53-.439-2.302-.006-.032-.02-.026-.968-1.29.115-1.425 2.073-1.035 1.493-1.57 1.272 1.121.447 2.318.449-1.57 1.795-2.392 6.8.075-.373 1.345 2.54 1.72 6.652-2.84.524-5.681 3.662 1.42 3.288-1.121 2.168 1.046 3.362 5.008-2.018 1.42 5.532 5.007 3.586.597v-7.473l5.083.897.897-3.363 2.99.897 2.24-.374-.747-1.793.821-1.122 2.766-.672-1.793-2.093-.15-2.168-1.495.748-.822-1.495 2.092-2.018-1.42-1.719 7.325-3.736 2.467-.15-2.317 2.092.373 1.72 1.57-1.42h1.569v3.363l2.317-2.242-1.27-4.335 2.316-2.018 4.035.3-1.717 1.718 1.194 1.122.972-1.048 1.047.898 1.196-1.57 2.316-.224 2.393 1.195 1.942-.597 1.047-3.662 2.914-3.588 4.261-2.765 2.99.298 2.987 2.84 4.112-2.316.763-1.478.128-.25 1.5-2.905 3.887-2.916V37.52l3.811 2.391 1.795-1.046 2.69-.299.299-2.914-2.915-1.645-1.943.598-2.168-2.69 3.064-2.766 2.168-.598-.299-1.57 3.214-5.231 11.957-6.502 7.997-5.307 6.877 1.87 2.317-1.048-4.261-1.718 1.718-2.243.375-3.064L154.618 0l2.243 2.915-1.794 1.27 1.944 1.421-1.496 1.868 3.811.748.824 1.793 2.84-.523.074 2.54-2.617-.373 1.271 1.495-5.231 3.961-3.14-.299-1.792 1.495.223 2.69-.971 2.243-1.645-1.794-1.121.897-1.942-1.72-.599 2.916 1.57 1.793 2.317-.896.074 1.943 1.196-.747.972.373.524 5.306-.973 2.018-2.465.822v2.915l2.168.15.297-2.093 2.692-.224 1.195-1.57 9.865.822.748 2.467-5.307 3.662 2.242 1.27.733 8.092.026.283 1.036 11.43 2.166 5.307-3.811.075-2.541 2.615-.074 7.176-3.215-2.542 1.496 5.98-2.018.448-.299 3.213 5.081 10.164 1.57.15.299-1.719h2.467l1.234 2.906.04-.045 2.387 1.549 1.496-.822 2.763 2.615-1.792 1.121-1.121-1.569-.898.598 3.662 6.502 3.588 1.047.449 1.943-1.793 1.943-.076 3.437 4.26 4.933-1.271 1.047-.223 3.662 2.466 2.466.822 3.438.599 7.474-20.629-13.826-3.771-4.258-3.179-3.59-.375-4.26-2.315-2.69.896-1.196-.523-1.719 1.645-1.794-1.42-4.484-1.047-4.485-.448-6.95-1.346-2.242 1.196-5.979-1.271-.3.075-2.092-1.345-.074-2.915-2.018-.449-2.242 1.944-2.916-3.663 1.27-.895 2.99 3.811 4.56-1.404 1.309-.061.283.567 2.368.524 3.364-.149 1.644-2.243.374-3.213-4.41-.748 2.242-1.569.075-2.766 3.96-.447 3.365 1.42 4.558.448 7.698 1.644 1.57 1.569-1.943 1.793 1.345-1.719 2.242-2.166.823-.598 4.259-2.391 2.691-1.645-1.42 1.719-2.467-2.317.075-2.541 2.242-3.289 1.047.598 3.811-1.868.448-1.346 1.122-2 1.319-.234.154-1.053.694.672 1.046-.225.897-2.391-.448-7.549 7.4.523 3.438-1.195 3.213.896 3.587-1.045 4.336-.897 8.968-3.588 8.968-.15 2.616 2.766.447 3.289-2.016 1.569 4.559 1.869-2.393 1.643 2.094 1.346-5.905 3.887-2.018 5.007.897 2.391.971-.973 1.944 1.123 1.345 3.24 1.339.198.081.106.254.866 2.063 1.27 6.204 1.42 1.719 4.335 8.818.971 2.765-.68 8.815.009.293z" fill="#00437B"/></svg>